<svg width="40" height="40" viewBox="0 0 58 58" fill="none" xmlns="http://www.w3.org/2000/svg">
<path fill-rule="evenodd" clip-rule="evenodd" d="M26.5833 48.3333C26.5833 46.9986 27.6652 45.9167 28.9999 45.9167L36.7333 45.9167C38.8033 45.9167 40.2105 45.9148 41.2982 45.8259C42.3577 45.7394 42.8996 45.5824 43.2775 45.3899C44.187 44.9265 44.9264 44.1871 45.3898 43.2776C45.5824 42.8997 45.7393 42.3578 45.8258 41.2983C45.9147 40.2106 45.9166 38.8034 45.9166 36.7333L45.9166 21.2667C45.9166 19.1966 45.9147 17.7894 45.8258 16.7017C45.7393 15.6422 45.5824 15.1003 45.3898 14.7224C44.9264 13.8129 44.187 13.0735 43.2775 12.6101C42.8996 12.4175 42.3577 12.2606 41.2982 12.1741C40.2105 12.0852 38.8033 12.0833 36.7333 12.0833L28.9999 12.0833C27.6652 12.0833 26.5833 11.0014 26.5833 9.66667C26.5833 8.33198 27.6652 7.25 28.9999 7.25L36.8331 7.25C38.7784 7.24997 40.384 7.24994 41.6918 7.3568C43.0502 7.46779 44.2989 7.70598 45.4718 8.3036C47.2907 9.23038 48.7695 10.7092 49.6963 12.5281C50.2939 13.701 50.5321 14.9497 50.6431 16.3081C50.75 17.616 50.75 19.2215 50.7499 21.1669V36.8332C50.75 38.7785 50.75 40.384 50.6431 41.6919C50.5321 43.0503 50.2939 44.299 49.6963 45.4719C48.7695 47.2908 47.2907 48.7696 45.4718 49.6964C44.2989 50.294 43.0502 50.5322 41.6918 50.6432C40.3839 50.7501 38.7784 50.75 36.8331 50.75H28.9999C27.6652 50.75 26.5833 49.668 26.5833 48.3333Z" fill="white"/>
<path d="M9.66667 31.4167C8.33198 31.4167 7.25 30.3347 7.25 29C7.25 27.6653 8.33198 26.5833 9.66667 26.5833H30.4157L27.2912 23.4588C26.3474 22.5151 26.3474 20.9849 27.2912 20.0412C28.2349 19.0974 29.7651 19.0974 30.7088 20.0412L37.9588 27.2912C38.9026 28.2349 38.9026 29.7651 37.9588 30.7088L30.7088 37.9588C29.7651 38.9026 28.2349 38.9026 27.2912 37.9588C26.3474 37.0151 26.3474 35.4849 27.2912 34.5412L30.4157 31.4167H9.66667Z" fill="white"/>
</svg>
